<svg width="1600" height="900" viewBox="0 0 1600 900" fill="none" xmlns="http://www.w3.org/2000/svg">
  <defs>
    <linearGradient id="bg" x1="160" y1="110" x2="1480" y2="820" gradientUnits="userSpaceOnUse">
      <stop offset="0" stop-color="#08111D"/>
      <stop offset="0.5" stop-color="#0C1B2E"/>
      <stop offset="1" stop-color="#142942"/>
    </linearGradient>
    <radialGradient id="glowLeft" cx="0" cy="0" r="1" gradientUnits="userSpaceOnUse" gradientTransform="translate(410 320) rotate(37.8) scale(605 394)">
      <stop stop-color="#1D6C7D" stop-opacity="0.45"/>
      <stop offset="1" stop-color="#1D6C7D" stop-opacity="0"/>
    </radialGradient>
    <radialGradient id="glowRight" cx="0" cy="0" r="1" gradientUnits="userSpaceOnUse" gradientTransform="translate(1260 238) rotate(124.9) scale(506 356)">
      <stop stop-color="#2EB6C9" stop-opacity="0.34"/>
      <stop offset="1" stop-color="#2EB6C9" stop-opacity="0"/>
    </radialGradient>
    <linearGradient id="accent" x1="250" y1="550" x2="1010" y2="550" gradientUnits="userSpaceOnUse">
      <stop stop-color="#48D6D2"/>
      <stop offset="0.55" stop-color="#74F2D8"/>
      <stop offset="1" stop-color="#9EE8FF"/>
    </linearGradient>
    <linearGradient id="cardStroke" x1="995" y1="182" x2="1418" y2="716" gradientUnits="userSpaceOnUse">
      <stop stop-color="#82F0E7" stop-opacity="0.6"/>
      <stop offset="1" stop-color="#8AB9FF" stop-opacity="0.2"/>
    </linearGradient>
    <linearGradient id="lineGrad" x1="997" y1="306" x2="1387" y2="659" gradientUnits="userSpaceOnUse">
      <stop stop-color="#77EEE4"/>
      <stop offset="1" stop-color="#8DB6FF"/>
    </linearGradient>
    <pattern id="grid" width="56" height="56" patternUnits="userSpaceOnUse">
      <path d="M56 0H0V56" stroke="#88A7C7" stroke-opacity="0.08"/>
    </pattern>
    <filter id="softBlur" x="-80" y="-80" width="1760" height="1060" filterUnits="userSpaceOnUse" color-interpolation-filters="sRGB">
      <feGaussianBlur stdDeviation="40"/>
    </filter>
    <filter id="cardShadow" x="940" y="136" width="547" height="656" filterUnits="userSpaceOnUse" color-interpolation-filters="sRGB">
      <feOffset dy="12"/>
      <feGaussianBlur stdDeviation="20"/>
      <feColorMatrix type="matrix" values="0 0 0 0 0.020 0 0 0 0 0.075 0 0 0 0 0.134 0 0 0 0.44 0"/>
      <feBlend in2="SourceGraphic" result="shape"/>
    </filter>
  </defs>

  <rect width="1600" height="900" fill="url(#bg)"/>
  <rect width="1600" height="900" fill="url(#grid)"/>
  <g filter="url(#softBlur)">
    <ellipse cx="410" cy="320" rx="305" ry="194" fill="url(#glowLeft)"/>
    <ellipse cx="1260" cy="238" rx="262" ry="170" fill="url(#glowRight)"/>
  </g>

  <path d="M0 766C202 692 332 690 504 736C676 782 850 842 1096 790C1270 753 1414 675 1600 591V900H0V766Z" fill="#09131F" fill-opacity="0.65"/>

  <g opacity="0.92">
    <rect x="108" y="112" width="286" height="42" rx="21" fill="#10263B"/>
    <circle cx="136" cy="133" r="7" fill="#48D6D2"/>
    <text x="156" y="140" fill="#A8C3DE" font-family="Arial, Helvetica, sans-serif" font-size="22" font-weight="700">OPEN-SOURCE CAREER SYSTEM</text>
  </g>

  <text x="108" y="262" fill="#F5FBFF" font-family="Arial, Helvetica, sans-serif" font-size="92" font-weight="800">Career-Ops LifeSci</text>
  <text x="108" y="342" fill="url(#accent)" font-family="Arial, Helvetica, sans-serif" font-size="50" font-weight="700">Career strategy for science, medicine, consulting, and health-tech</text>

  <text x="108" y="430" fill="#C8D7E8" font-family="Arial, Helvetica, sans-serif" font-size="29" font-weight="400">
    <tspan x="108" dy="0">Evaluate opportunities. Build stronger narratives. Generate ATS-safe documents.</tspan>
    <tspan x="108" dy="44">Track pipelines, scan role families, and navigate multidimensional career paths with rigor.</tspan>
  </text>

  <g opacity="0.95">
    <rect x="108" y="516" width="245" height="56" rx="28" fill="#10283E"/>
    <text x="154" y="552" fill="#E9F6FF" font-family="Arial, Helvetica, sans-serif" font-size="25" font-weight="700">Role Packs</text>
    <rect x="372" y="516" width="268" height="56" rx="28" fill="#10283E"/>
    <text x="421" y="552" fill="#E9F6FF" font-family="Arial, Helvetica, sans-serif" font-size="25" font-weight="700">Career Stages</text>
    <rect x="659" y="516" width="307" height="56" rx="28" fill="#10283E"/>
    <text x="709" y="552" fill="#E9F6FF" font-family="Arial, Helvetica, sans-serif" font-size="25" font-weight="700">International-Ready</text>
  </g>

  <text x="108" y="640" fill="#7EDDE6" font-family="Arial, Helvetica, sans-serif" font-size="27" font-weight="700">Biopharma medical</text>
  <text x="360" y="640" fill="#7EDDE6" font-family="Arial, Helvetica, sans-serif" font-size="27" font-weight="700">Life sciences consulting</text>
  <text x="720" y="640" fill="#7EDDE6" font-family="Arial, Helvetica, sans-serif" font-size="27" font-weight="700">Health-tech scientific</text>
  <text x="108" y="690" fill="#C8D7E8" font-family="Arial, Helvetica, sans-serif" font-size="24" font-weight="400">Students and trainees</text>
  <text x="360" y="690" fill="#C8D7E8" font-family="Arial, Helvetica, sans-serif" font-size="24" font-weight="400">Advanced training transitions</text>
  <text x="760" y="690" fill="#C8D7E8" font-family="Arial, Helvetica, sans-serif" font-size="24" font-weight="400">Experienced career pivots</text>
  <text x="108" y="760" fill="#A3B6CA" font-family="Arial, Helvetica, sans-serif" font-size="22" font-weight="400">ATS-safe resumes   •   Opportunity scoring   •   Sponsorship-aware logic   •   Pipeline tracking</text>

  <g filter="url(#cardShadow)">
    <rect x="997" y="182" width="430" height="564" rx="34" fill="#10253A" fill-opacity="0.82"/>
    <rect x="997.75" y="182.75" width="428.5" height="562.5" rx="33.25" stroke="url(#cardStroke)" stroke-width="1.5"/>
  </g>

  <g opacity="0.95">
    <rect x="1033" y="222" width="152" height="34" rx="17" fill="#143149"/>
    <text x="1060" y="245" fill="#91E6E3" font-family="Arial, Helvetica, sans-serif" font-size="18" font-weight="700">ROLE MATRIX</text>

    <rect x="1033" y="286" width="358" height="114" rx="24" fill="#10293F"/>
    <rect x="1033.75" y="286.75" width="356.5" height="112.5" rx="23.25" stroke="#3BC9D3" stroke-opacity="0.35" stroke-width="1.5"/>
    <text x="1060" y="329" fill="#F4FBFF" font-family="Arial, Helvetica, sans-serif" font-size="29" font-weight="700">Evaluate</text>
    <text x="1060" y="364" fill="#BCD1E5" font-family="Arial, Helvetica, sans-serif" font-size="22" font-weight="400">Fit, gaps, level, sponsorship,</text>
    <text x="1060" y="392" fill="#BCD1E5" font-family="Arial, Helvetica, sans-serif" font-size="22" font-weight="400">and best-next-step logic.</text>

    <rect x="1033" y="424" width="358" height="114" rx="24" fill="#10293F"/>
    <rect x="1033.75" y="424.75" width="356.5" height="112.5" rx="23.25" stroke="#76EFCF" stroke-opacity="0.35" stroke-width="1.5"/>
    <text x="1060" y="467" fill="#F4FBFF" font-family="Arial, Helvetica, sans-serif" font-size="29" font-weight="700">Translate</text>
    <text x="1060" y="502" fill="#BCD1E5" font-family="Arial, Helvetica, sans-serif" font-size="22" font-weight="400">Turn deep experience into</text>
    <text x="1060" y="530" fill="#BCD1E5" font-family="Arial, Helvetica, sans-serif" font-size="22" font-weight="400">employer-relevant narratives.</text>

    <rect x="1033" y="562" width="358" height="114" rx="24" fill="#10293F"/>
    <rect x="1033.75" y="562.75" width="356.5" height="112.5" rx="23.25" stroke="#8AB9FF" stroke-opacity="0.35" stroke-width="1.5"/>
    <text x="1060" y="605" fill="#F4FBFF" font-family="Arial, Helvetica, sans-serif" font-size="29" font-weight="700">Navigate</text>
    <text x="1060" y="640" fill="#BCD1E5" font-family="Arial, Helvetica, sans-serif" font-size="22" font-weight="400">Track pipelines across sectors,</text>
    <text x="1060" y="668" fill="#BCD1E5" font-family="Arial, Helvetica, sans-serif" font-size="22" font-weight="400">stages, and opportunity paths.</text>
  </g>

  <g stroke="url(#lineGrad)" stroke-width="3" stroke-linecap="round" opacity="0.7">
    <path d="M960 356C997 356 998 343 1033 343"/>
    <path d="M960 481C994 481 1004 481 1033 481"/>
    <path d="M960 619C993 619 1004 619 1033 619"/>
    <path d="M887 356H960"/>
    <path d="M842 481H960"/>
    <path d="M787 619H960"/>
  </g>

  <g fill="#9EE8FF" opacity="0.95">
    <circle cx="887" cy="356" r="10"/>
    <circle cx="842" cy="481" r="10"/>
    <circle cx="787" cy="619" r="10"/>
  </g>

  <g opacity="0.24" stroke="#7BA1C6" stroke-width="2">
    <path d="M1023 132C1093 113 1172 117 1241 145C1311 172 1366 228 1437 248"/>
    <path d="M1109 118C1176 151 1242 206 1285 274"/>
    <path d="M1387 180C1453 228 1495 298 1521 375"/>
  </g>
</svg>
